<svg width="286" height="35" viewBox="0 0 286 35" fill="none" xmlns="http://www.w3.org/2000/svg">
<path d="M1.088 23.728V26.788H17.9V23.728H1.088ZM0.26 6.592V9.724H18.26V6.592H0.26ZM7.424 4.036V29.848H11.312V4.036H7.424ZM0.08 29.452L0.584 33.052C5.264 32.62 11.816 31.972 17.936 31.324L17.9 28.048C11.42 28.624 4.544 29.128 0.08 29.452ZM4.652 17.968H14.156V19.624H4.652V17.968ZM4.652 13.828H14.156V15.448H4.652V13.828ZM1.196 11.128V22.324H17.72V11.128H1.196ZM15.956 0.615999C11.996 1.48 5.732 2.128 0.368 2.38C0.764 3.208 1.16 4.576 1.304 5.44C6.704 5.332 13.256 4.792 17.864 3.856L15.956 0.615999ZM18.26 8.572V12.532H30.716V8.572H18.26ZM28.988 8.572V9.508C28.7 23.44 28.412 28.516 27.584 29.596C27.26 30.1 26.9 30.208 26.36 30.208C25.64 30.208 24.272 30.208 22.724 30.064C23.408 31.216 23.876 32.98 23.984 34.168C25.676 34.24 27.368 34.24 28.484 34.024C29.672 33.808 30.5 33.412 31.292 32.188C32.48 30.568 32.768 25.312 33.092 10.48C33.092 9.976 33.128 8.572 33.128 8.572H28.988ZM21.716 1.048C21.68 15.412 22.076 25.492 14.48 31.288C15.452 32.008 16.856 33.484 17.468 34.528C25.784 27.976 25.82 16.42 25.856 1.048H21.716ZM53.576 0.435999C52.496 5.764 50.48 10.912 47.6 14.08C48.5 14.62 50.192 15.844 50.876 16.492C53.792 12.892 56.168 7.168 57.464 1.192L53.576 0.435999ZM65.672 6.052V6.988C65.096 22.288 64.412 27.868 63.404 29.128C62.972 29.632 62.648 29.812 62.108 29.812C61.424 29.812 60.2 29.776 58.868 29.632C59.516 30.82 59.948 32.656 60.056 33.88C61.64 33.952 63.152 33.952 64.16 33.736C65.348 33.52 66.14 33.088 66.968 31.864C68.336 30.064 68.984 24.16 69.668 7.996C69.704 7.456 69.74 6.052 69.74 6.052H65.672ZM54.656 6.052L52.676 10.048H67.508V6.052H54.656ZM57.176 7.348C55.808 13.396 52.64 20.164 48.464 23.44C49.58 24.052 50.948 25.06 51.776 25.888C55.7 22.216 58.868 15.088 60.308 8.896L57.176 7.348ZM62.18 7.744C60.524 16.996 56.816 26.392 50.516 30.892C51.704 31.468 53.216 32.548 54.044 33.412C59.984 28.444 63.8 18.652 65.528 9.292L62.18 7.744ZM35.936 20.056L36.98 24.196C40.796 23.08 45.728 21.604 50.264 20.2L49.688 16.384C44.72 17.788 39.464 19.264 35.936 20.056ZM42.416 0.435999V34.24H46.376V0.435999H42.416ZM37.664 2.488C37.34 6.772 36.728 11.272 35.576 14.152C36.44 14.584 37.988 15.592 38.636 16.096C39.932 12.892 40.796 7.852 41.264 3.1L37.664 2.488ZM38.636 7.384L37.844 11.524H49.364V7.384H38.636ZM80.324 0.687998V21.316H84.824V0.687998H80.324ZM93.104 0.687998V21.316H97.64V0.687998H93.104ZM72.584 18.472V22.684H105.524V18.472H72.584ZM73.808 7.384V11.524H104.408V7.384H73.808ZM91.484 26.068C94.688 28.552 98.972 32.08 100.988 34.24L105.272 31.72C102.968 29.524 98.504 26.176 95.444 23.908L91.484 26.068ZM81.908 24.052C80.036 26.464 76.184 29.452 72.8 31.216C73.808 31.972 75.428 33.34 76.328 34.24C79.82 32.224 83.78 28.948 86.48 25.816L81.908 24.052ZM119.528 21.136V25.132H141.596V21.136H119.528ZM122.336 12.064V15.952H136.088V12.064H122.336ZM128.708 18.148V29.56C128.708 30.028 128.528 30.136 127.952 30.172C127.376 30.172 125.252 30.172 123.416 30.1C123.956 31.288 124.46 32.98 124.64 34.24C127.52 34.24 129.644 34.204 131.156 33.592C132.704 32.944 133.064 31.828 133.064 29.668V18.148H128.708ZM135.008 12.064V12.856C133.964 14.512 131.516 17.14 129.464 18.616C130.112 19.192 131.228 20.38 131.768 21.136C134.504 19.3 137.492 16.456 139.688 13.972L136.988 11.812L136.088 12.064H135.008ZM108.98 5.116V9.256H141.092V5.116H108.98ZM120.248 0.399999C118.376 7.708 114.272 15.808 107.72 20.092C108.404 21.172 109.412 23.152 109.88 24.34C117.62 19.048 122.156 10.264 124.82 1.516L120.248 0.399999ZM113.048 15.448V34.204H117.44V15.448H113.048ZM165.932 7.024V10.984H177.884V7.024H165.932ZM166.292 0.399999C165.536 6.88 164.06 13.144 161.288 17.032C162.188 17.752 163.772 19.372 164.348 20.164C167.516 15.628 169.388 8.428 170.432 1.012L166.292 0.399999ZM172.124 9.328C171.224 19.732 168.668 26.932 161.54 30.856C162.26 31.684 163.484 33.484 163.844 34.384C171.836 29.524 174.86 21.568 176.12 9.652L172.124 9.328ZM168.2 10.336L164.528 10.84C166.004 21.496 168.704 29.956 175.256 34.312C175.868 33.268 177.164 31.648 178.1 30.892C172.088 27.328 169.424 19.444 168.2 10.336ZM152 0.435999V19.66H155.708V0.435999H152ZM149.912 4.936H157.976V10.156H149.912V4.936ZM146.384 2.2V12.892H161.72V2.2H146.384ZM149.192 16.636H158.696V18.112H149.192V16.636ZM145.628 14.008V20.704H162.44V14.008H145.628ZM144.188 22.216L144.296 25.384C149.336 25.312 156.86 25.204 163.988 25.024L164.096 22C156.896 22.108 149.228 22.216 144.188 22.216ZM151.136 19.948C149.732 22.72 147.68 26.284 146.168 28.552L149.66 29.416C151.1 27.148 153.152 23.692 154.7 20.776L151.136 19.948ZM148.94 28.552C152.972 30.028 157.148 32.152 159.524 33.844L162.188 31.216C159.596 29.56 155.132 27.472 150.992 26.068L148.94 28.552ZM157.292 23.728C155.924 28.66 152.288 30.424 145.016 31.072C145.628 31.9 146.312 33.268 146.528 34.384C155.096 32.98 159.416 30.532 160.892 24.124L157.292 23.728ZM144.08 5.98V9.076H147.716V8.824H159.956V9.076H164.096V5.98H159.956V6.232H147.716V5.98H144.08ZM201.464 2.308V5.296H211.76V2.308H201.464ZM192.896 6.736V9.796H210.5V6.736H192.896ZM195.884 17.752V20.524H213.488V17.752H195.884ZM199.376 0.543999V8.32H203.516V0.543999H199.376ZM209.78 6.736V7.204C209.528 8.896 209.024 11.056 208.592 12.352L211.796 13.036C212.408 11.524 213.128 9.22 213.56 7.132L210.932 6.628L210.356 6.736H209.78ZM191.492 6.736V17.464C191.492 22 191.24 27.94 188.36 32.044C189.224 32.44 190.844 33.592 191.492 34.204C194.696 29.704 195.2 22.612 195.2 17.5V6.736H191.492ZM195.632 11.74L195.92 14.116L207.908 13.036L207.656 10.696L195.632 11.74ZM199.376 9.616V13.612C199.376 16.24 200.276 16.924 203.84 16.924C204.596 16.924 207.872 16.924 208.628 16.924C211.004 16.924 211.904 16.276 212.192 13.972C211.328 13.828 210.068 13.468 209.348 13.072C209.24 14.296 209.024 14.512 208.196 14.512C207.476 14.512 204.848 14.512 204.308 14.512C203.12 14.512 202.904 14.44 202.904 13.612V9.616H199.376ZM199.412 22.792C203.732 25.564 203.66 29.884 202.76 30.892C202.4 31.324 202.004 31.432 201.464 31.432C200.888 31.432 200.24 31.396 199.412 31.288C199.988 32.152 200.24 33.448 200.276 34.276C200.924 34.348 201.572 34.348 202.148 34.348C203.336 34.312 204.2 34.06 205.064 33.16C207.152 31.288 207.296 24.916 201.752 21.352L199.412 22.792ZM201.572 23.512C200.132 24.7 197.18 25.96 194.876 26.536C195.416 27.04 196.028 28.012 196.316 28.588C198.764 27.688 201.788 26.032 203.408 24.628L201.572 23.512ZM202.94 26.032C200.996 27.94 196.928 29.956 193.724 30.82C194.3 31.396 194.948 32.44 195.272 33.088C198.584 31.864 202.724 29.452 204.92 27.328L202.94 26.032ZM211.22 21.244C210.14 22.324 208.196 23.836 206.828 24.736L208.772 26.428C210.176 25.636 212.012 24.412 213.524 23.116L211.22 21.244ZM207.26 18.688L204.596 19.12C205.712 25.348 207.836 30.568 212.048 33.088C212.552 32.152 213.596 30.82 214.352 30.172C210.428 28.264 208.268 23.764 207.26 18.688ZM203.408 18.904C201.86 20.488 198.332 21.928 195.38 22.648C195.776 23.152 196.352 24.16 196.604 24.736C199.916 23.8 203.732 21.928 205.856 19.768L203.408 18.904ZM179.684 18.4L180.62 22.54C183.716 21.676 187.568 20.524 191.132 19.444L190.592 15.556C186.596 16.672 182.492 17.752 179.684 18.4ZM180.296 7.276V11.236H190.628V7.276H180.296ZM184.004 0.435999V29.776C184.004 30.244 183.824 30.388 183.392 30.388C182.96 30.388 181.7 30.388 180.404 30.352C180.908 31.468 181.376 33.196 181.52 34.276C183.788 34.276 185.372 34.132 186.416 33.484C187.532 32.8 187.856 31.72 187.856 29.776V0.435999H184.004ZM218.564 2.668V6.952H247.328V2.668H218.564ZM216.62 17.932V22.288H249.416V17.932H216.62ZM220.724 9.256C221.876 11.668 223.028 14.836 223.388 16.78L227.564 15.448C227.168 13.468 225.908 10.408 224.648 8.104L220.724 9.256ZM241.244 7.996C240.56 10.372 239.228 13.54 238.112 15.628L241.892 16.744C243.08 14.872 244.556 11.92 245.852 9.184L241.244 7.996ZM230.696 4.468V34.204H235.196V4.468H230.696ZM258.884 28.588V32.764H278.756V28.588H258.884ZM256.94 18.256V34.204H261.368V22.396H276.38V34.204H281.024V18.256H256.94ZM263.996 0.147998C262.448 4.18 259.604 9.364 257.192 12.64L261.08 14.188C263.528 11.056 266.588 6.232 268.928 1.768L263.996 0.147998ZM272.636 6.592C276.236 9.688 280.34 14.08 282.032 17.104L285.812 14.224C283.94 11.128 279.62 6.952 276.056 4.072L272.636 6.592ZM253.124 10.624L253.376 15.016C260.468 14.728 271.268 14.296 281.24 13.756L281.456 9.58C271.556 10.012 260.396 10.444 253.124 10.624Z" fill="#898581"/>
</svg>
